<?xml version="1.0" standalone="no"?>
<!DOCTYPE svg PUBLIC "-//W3C//DTD SVG 20010904//EN"
 "http://www.w3.org/TR/2001/REC-SVG-20010904/DTD/svg10.dtd">
<svg version="1.0" xmlns="http://www.w3.org/2000/svg"
 width="1080.000000pt" height="1080.000000pt" viewBox="0 0 1080.000000 1080.000000"
 preserveAspectRatio="xMidYMid meet">

<g transform="translate(0.000000,1080.000000) scale(0.100000,-0.100000)"
fill="#000000" stroke="none">
<path d="M6285 9008 c-2 -7 -6 -24 -9 -38 -13 -65 -69 -277 -77 -291 -4 -9
-10 -34 -14 -55 -3 -22 -13 -58 -21 -81 -21 -58 -16 -87 17 -91 23 -3 27 2 42
50 8 29 18 64 21 78 4 14 18 68 33 120 14 52 29 113 34 135 4 22 15 66 24 98
13 46 14 61 4 73 -14 17 -48 18 -54 2z"/>
<path d="M5226 8933 c8 -21 19 -47 24 -58 5 -11 25 -58 45 -105 20 -47 45
-103 55 -125 10 -22 23 -52 29 -67 9 -23 17 -28 46 -28 32 0 37 4 57 48 12 26
34 74 49 107 15 33 36 80 47 105 11 25 29 66 41 92 11 26 21 52 21 57 0 19
-60 13 -67 -6 -7 -23 -28 -70 -92 -207 -44 -93 -53 -107 -66 -96 -8 7 -15 18
-15 25 0 12 -24 73 -55 140 -8 17 -25 58 -37 92 -23 61 -24 63 -60 63 l-37 0
15 -37z"/>
<path d="M4345 8939 c-33 -3 -71 -11 -85 -17 -14 -6 -58 -21 -97 -33 -80 -25
-83 -30 -59 -96 7 -21 24 -72 36 -113 12 -41 34 -106 47 -145 14 -38 29 -90
34 -115 5 -25 17 -53 28 -63 16 -17 21 -17 52 -4 19 8 68 25 109 37 98 30 160
61 200 102 107 107 96 289 -25 396 -27 23 -61 44 -79 46 -70 11 -104 12 -161
5z m168 -82 c42 -24 66 -57 92 -133 17 -48 17 -53 1 -102 -31 -92 -78 -131
-201 -170 -118 -36 -107 -45 -159 128 -8 25 -21 68 -30 95 -34 112 -39 133
-33 148 4 10 14 17 24 17 10 0 32 7 48 16 37 20 126 33 180 26 22 -2 57 -14
78 -25z"/>
<path d="M4875 8924 c-73 -37 -114 -106 -115 -188 0 -88 67 -181 145 -201 73
-18 172 -3 223 35 35 26 38 46 10 64 -13 8 -22 6 -40 -10 -13 -12 -45 -29 -73
-38 -47 -16 -51 -15 -101 5 -38 16 -57 31 -71 56 -18 34 -18 35 1 49 12 8 44
14 80 15 58 0 108 7 186 26 31 8 35 13 38 46 3 30 -3 46 -28 77 -48 61 -87 80
-161 80 -38 0 -76 -6 -94 -16z m172 -60 c31 -19 56 -61 49 -79 -3 -10 -19 -15
-44 -15 -21 0 -64 -7 -95 -15 -32 -8 -74 -15 -92 -15 -32 0 -35 2 -35 30 0 40
54 99 100 109 42 10 87 4 117 -15z"/>
<path d="M5800 8920 c-52 -24 -73 -47 -101 -108 -65 -147 41 -301 209 -302 60
0 137 32 126 53 -20 35 -25 37 -55 22 -44 -23 -113 -19 -158 9 -43 27 -83 88
-75 111 7 18 87 14 211 -11 108 -21 130 -19 136 12 6 31 -15 116 -38 150 -47
72 -171 103 -255 64z m160 -59 c38 -20 85 -99 69 -116 -12 -12 -75 -8 -182 12
-86 17 -88 18 -82 43 8 30 33 59 60 71 35 14 99 10 135 -10z"/>
<path d="M6492 8746 c-37 -14 -112 -81 -112 -101 0 -7 -7 -26 -15 -41 -20 -40
-19 -87 5 -137 45 -95 96 -127 205 -127 93 0 133 20 176 89 26 39 29 54 29
123 l0 77 -52 53 c-72 72 -152 94 -236 64z m148 -68 c57 -30 83 -76 77 -141
-13 -152 -208 -196 -279 -64 -22 42 -22 76 1 129 38 90 116 119 201 76z"/>
<path d="M3650 8655 c-7 -8 -18 -15 -25 -15 -6 0 -30 -13 -51 -28 -21 -16 -51
-35 -66 -43 -74 -40 -128 -73 -128 -79 0 -4 9 -15 19 -24 21 -19 27 -16 186
79 64 39 62 44 36 -124 -11 -71 -1 -106 27 -98 10 3 41 16 70 28 52 23 53 23
87 5 40 -22 60 -63 51 -109 -11 -60 -91 -112 -188 -123 -56 -6 -59 -8 -56 -33
3 -26 4 -26 72 -23 185 7 301 171 213 299 -42 61 -101 76 -196 47 -22 -7 -23
-5 -17 27 18 101 28 198 23 213 -8 20 -40 21 -57 1z"/>
<path d="M6907 8488 c-36 -62 -75 -129 -86 -148 -11 -19 -26 -46 -33 -60 -6
-14 -17 -32 -24 -40 -6 -8 -26 -41 -43 -73 -31 -56 -32 -59 -14 -73 36 -27 44
-21 92 70 48 92 52 94 74 50 40 -78 102 -114 195 -114 49 0 66 5 98 28 118 86
138 236 44 330 -41 41 -96 62 -164 62 -31 0 -35 3 -33 26 1 17 -6 31 -19 40
-21 14 -24 11 -87 -98z m200 -33 c83 -35 115 -114 79 -198 -47 -111 -172 -129
-251 -35 -24 29 -27 38 -23 93 4 72 25 106 83 135 48 24 64 25 112 5z"/>
<path d="M7397 8238 c-54 -15 -133 -105 -142 -164 -12 -85 2 -131 61 -190 75
-75 191 -108 182 -52 -2 13 -16 25 -39 32 -103 35 -143 81 -143 161 0 99 3 97
212 -77 32 -26 64 -48 72 -48 54 1 83 175 41 244 -28 44 -77 81 -126 95 -47
13 -66 13 -118 -1z m139 -70 c45 -22 65 -58 66 -117 0 -93 -13 -92 -129 6 -57
47 -100 89 -97 95 22 35 104 44 160 16z"/>
<path d="M3262 8229 c-38 -15 -122 -108 -122 -134 0 -13 -4 -26 -9 -29 -8 -5
-73 62 -130 134 -19 24 -19 25 -40 6 -12 -11 -21 -24 -21 -30 0 -6 24 -38 53
-72 28 -33 66 -78 84 -99 17 -22 52 -65 77 -95 25 -30 69 -83 96 -117 51 -63
73 -71 85 -32 3 10 1 27 -4 38 -9 15 -7 20 12 25 12 3 35 6 50 6 44 0 112 53
137 106 19 39 22 56 17 112 -6 57 -12 71 -44 110 -52 61 -95 82 -163 81 -30 0
-65 -4 -78 -10z m176 -104 c40 -42 42 -47 42 -104 0 -70 -24 -106 -89 -136
-35 -15 -47 -16 -80 -7 -51 16 -87 46 -111 93 -24 46 -25 65 -5 113 30 71 80
99 160 90 31 -3 49 -14 83 -49z"/>
<path d="M7692 7832 c-126 -121 -140 -140 -126 -176 10 -26 22 -19 98 50 143
134 181 149 246 95 35 -28 36 -28 58 -11 12 10 22 21 22 25 0 9 -43 44 -55 45
-5 0 -27 5 -48 11 -33 9 -36 12 -27 30 14 25 3 59 -18 59 -9 -1 -77 -58 -150
-128z"/>
<path d="M2875 7863 c-32 -8 -95 -74 -116 -121 -10 -24 -19 -60 -19 -80 1 -52
47 -130 100 -168 40 -29 52 -33 116 -33 60 -1 76 3 115 27 24 16 56 46 71 68
33 47 48 122 27 135 -16 9 -49 -16 -49 -38 0 -28 -32 -74 -72 -103 -45 -33
-104 -40 -146 -16 -23 12 -22 13 53 97 118 129 148 168 142 183 -10 26 -90 56
-148 55 -30 -1 -63 -3 -74 -6z m110 -57 c19 -8 35 -18 35 -22 0 -4 -26 -37
-58 -73 -32 -36 -69 -78 -82 -93 -13 -16 -29 -28 -36 -28 -22 0 -44 43 -44 85
0 65 70 136 143 144 4 1 23 -6 42 -13z"/>
<path d="M2446 7608 c-18 -25 -22 -18 85 -133 32 -33 74 -81 95 -107 22 -26
57 -68 78 -93 21 -25 36 -48 33 -51 -3 -4 -37 1 -74 10 -71 16 -123 27 -233
46 -36 6 -85 15 -109 21 -49 11 -61 3 -61 -40 0 -29 134 -195 251 -310 9 -9
22 -27 29 -40 12 -23 11 -23 -22 -18 -79 12 -166 30 -212 43 -26 8 -60 14 -75
14 -15 0 -52 7 -81 16 -53 16 -55 16 -72 -6 -10 -12 -18 -26 -18 -31 0 -14 40
-27 138 -44 177 -32 238 -44 277 -53 22 -6 64 -12 93 -15 49 -4 54 -2 73 25
l21 29 -48 52 c-27 29 -81 91 -121 137 -39 47 -85 98 -102 114 -55 53 -44 55
144 22 50 -8 104 -19 122 -25 18 -5 61 -12 97 -16 64 -7 64 -7 80 23 16 30 15
31 -27 81 -137 163 -328 371 -338 371 -5 0 -15 -10 -23 -22z"/>
<path d="M8031 7451 c-9 -6 -11 -16 -6 -32 8 -26 92 -149 102 -149 4 0 14 7
24 16 20 18 22 14 -60 127 -38 50 -39 51 -60 38z"/>
<path d="M8495 7065 c-66 -29 -141 -63 -167 -74 -53 -24 -105 -72 -120 -110
-5 -14 -10 -56 -10 -92 1 -84 37 -158 100 -206 39 -30 50 -33 109 -33 36 0 79
6 96 14 18 7 57 23 87 36 236 98 229 94 214 134 -9 24 -35 20 -121 -20 -43
-19 -91 -41 -108 -48 -156 -70 -224 -66 -285 16 -20 27 -25 45 -25 100 0 97
15 110 265 220 94 41 130 60 130 66 0 12 -30 52 -38 51 -4 0 -61 -25 -127 -54z"/>
<path d="M2235 6453 c-3 -15 -15 -56 -26 -91 -21 -70 -19 -82 16 -82 19 0 26
7 31 28 3 15 12 47 20 71 16 51 18 91 5 91 -5 0 -16 3 -25 6 -11 4 -17 -2 -21
-23z"/>
<path d="M8765 6465 c-22 -8 -58 -18 -80 -24 -105 -27 -162 -43 -180 -51 -11
-4 -34 -11 -52 -14 -50 -8 -103 -34 -103 -49 0 -7 6 -22 14 -32 12 -17 17 -18
42 -6 16 7 56 20 89 27 60 14 135 34 190 53 29 9 74 21 163 42 29 7 42 16 42
28 0 41 -50 52 -125 26z"/>
<path d="M8310 6182 l0 -30 78 -7 c42 -3 91 -11 107 -16 17 -5 66 -12 110 -15
44 -3 94 -10 111 -15 17 -5 83 -16 145 -24 63 -8 137 -19 164 -24 54 -10 65
-7 65 14 0 29 -31 45 -86 45 -31 0 -64 4 -74 10 -10 5 -65 14 -122 19 -57 5
-114 14 -128 19 -14 5 -63 13 -110 17 -47 4 -94 11 -105 15 -12 4 -51 11 -88
15 l-67 7 0 -30z"/>
<path d="M1964 5998 c-12 -18 -4 -79 12 -102 19 -28 18 -36 -6 -36 -24 0 -49
-45 -33 -61 5 -5 63 -14 129 -20 65 -5 144 -14 175 -19 95 -17 109 -14 109 20
0 25 -5 30 -37 39 -21 5 -77 12 -125 16 -79 6 -90 10 -124 39 -31 27 -39 41
-43 82 -5 40 -10 50 -28 52 -11 2 -25 -3 -29 -10z"/>
<path d="M8670 5900 c-120 -12 -184 -67 -209 -175 -14 -59 5 -162 36 -198 73
-85 98 -91 304 -84 187 7 219 15 219 51 0 31 -11 34 -95 25 -38 -4 -115 -10
-170 -14 -91 -5 -104 -4 -144 17 -62 32 -84 66 -88 135 -6 82 16 120 87 155
52 26 63 27 200 28 178 0 190 3 190 41 l0 29 -132 -1 c-73 -1 -162 -5 -198 -9z"/>
<path d="M2029 5640 c-50 -26 -97 -83 -105 -126 -20 -107 19 -196 107 -242 81
-43 210 -17 264 54 50 65 54 215 8 279 -22 30 -34 31 -51 5 -10 -17 -10 -24 2
-43 56 -84 9 -230 -76 -239 l-23 -3 -3 168 -2 167 -43 0 c-23 -1 -58 -9 -78
-20z m71 -187 l0 -135 -27 7 c-64 15 -112 98 -94 161 17 55 24 65 60 88 58 37
61 31 61 -121z"/>
<path d="M8470 5322 c0 -38 5 -45 101 -133 115 -107 116 -91 -16 -164 -102
-56 -131 -82 -139 -123 l-6 -32 31 16 c32 16 192 107 219 125 52 33 60 31 118
-18 31 -27 84 -74 118 -105 34 -32 64 -58 68 -58 3 0 6 15 6 33 0 28 -13 44
-97 122 l-97 91 40 24 c21 14 44 26 49 29 6 2 40 21 78 43 53 31 67 44 67 63
0 13 -4 26 -9 29 -9 6 -42 -5 -71 -24 -8 -5 -57 -33 -108 -61 l-93 -52 -72 70
c-96 93 -166 157 -178 161 -5 2 -9 -14 -9 -36z"/>
<path d="M2225 5160 c-38 -4 -83 -13 -98 -19 -16 -6 -38 -11 -50 -11 -28 0
-81 -37 -101 -71 -10 -17 -16 -50 -16 -91 0 -66 8 -86 57 -140 29 -30 27 -32
-63 -43 -66 -8 -129 -30 -128 -44 5 -50 -6 -49 194 -17 52 9 115 20 140 25 25
6 77 14 115 19 98 14 125 26 125 56 0 14 -4 27 -8 30 -5 3 -40 -2 -78 -9 -123
-26 -187 -29 -223 -11 -70 37 -94 137 -46 194 20 24 41 33 117 51 51 12 109
21 128 21 46 0 63 12 58 41 -4 28 -19 30 -123 19z"/>
<path d="M2347 4683 c-4 -3 -7 -17 -7 -29 0 -16 7 -25 24 -30 35 -9 66 -71 66
-136 0 -50 -3 -57 -40 -93 -36 -36 -46 -39 -103 -43 -57 -4 -66 -1 -95 23 -58
49 -78 119 -51 179 10 22 9 28 -12 45 l-24 19 -17 -31 c-35 -65 -13 -183 45
-245 38 -41 75 -54 155 -54 67 1 80 4 116 29 113 79 121 239 18 339 -33 32
-61 42 -75 27z"/>
<path d="M8325 4548 c-15 -40 -31 -82 -36 -93 -16 -35 -49 -159 -49 -183 0
-36 37 -131 65 -168 15 -19 50 -46 78 -61 46 -24 63 -27 144 -27 73 0 96 3
111 17 10 9 23 17 28 17 31 0 144 174 144 220 0 9 4 20 9 25 4 6 16 34 25 63
19 60 13 75 -31 87 -14 3 -67 22 -117 41 -50 20 -116 45 -146 56 -66 25 -80
30 -144 57 -27 12 -50 21 -51 21 -1 0 -14 -33 -30 -72z m111 -36 c5 -5 63 -28
129 -51 145 -52 215 -82 215 -92 0 -23 -66 -174 -91 -208 -90 -125 -297 -102
-361 40 -29 66 -23 125 26 249 8 19 17 43 20 53 6 18 45 24 62 9z"/>
<path d="M2590 4166 c-14 -8 -47 -23 -75 -35 -27 -13 -62 -29 -77 -37 -14 -8
-48 -14 -76 -14 -45 0 -53 4 -86 40 -39 43 -56 49 -76 25 -18 -22 13 -63 64
-89 l39 -19 -23 -17 c-18 -13 -21 -23 -16 -44 3 -14 11 -26 16 -26 5 0 58 23
117 51 60 28 141 66 181 85 39 19 72 36 72 39 0 10 -24 55 -29 55 -3 0 -17 -7
-31 -14z"/>
<path d="M8130 4004 c-79 -34 -128 -109 -132 -201 -3 -56 -2 -58 22 -58 19 0
26 6 28 25 8 74 16 95 54 136 39 42 43 44 99 44 33 0 59 -4 59 -10 0 -5 -20
-43 -45 -83 -25 -41 -45 -77 -45 -80 0 -3 -16 -28 -35 -57 -19 -29 -35 -60
-35 -70 0 -25 53 -44 125 -43 95 1 145 35 184 126 23 54 26 92 10 134 -45 121
-180 184 -289 137z m218 -134 c27 -49 28 -85 1 -129 -27 -45 -57 -68 -96 -76
-35 -6 -83 2 -83 15 0 5 17 36 38 69 48 80 80 133 88 149 11 22 29 13 52 -28z"/>
<path d="M2652 3980 c-23 -16 -45 -30 -48 -30 -13 0 -119 -73 -151 -103 -18
-17 -37 -45 -43 -62 -26 -79 80 -245 156 -245 40 0 35 27 -12 65 -45 37 -84
99 -84 132 0 30 38 83 60 83 11 0 27 -12 36 -27 76 -126 115 -163 169 -163 61
0 115 55 115 117 -1 64 -62 149 -125 173 -26 10 -28 13 -12 21 20 12 22 40 5
57 -17 17 -20 16 -66 -18z m75 -112 c30 -21 63 -79 63 -112 0 -8 -8 -24 -18
-36 -40 -50 -107 -15 -158 84 l-26 50 22 18 c30 24 77 23 117 -4z"/>
<path d="M7857 3645 c-48 -37 -91 -99 -107 -157 -20 -67 29 -138 96 -138 25 0
53 15 118 65 47 36 93 65 104 65 51 0 57 -66 11 -128 -17 -23 -34 -42 -39 -42
-4 0 -19 -9 -33 -20 -23 -18 -25 -24 -15 -45 6 -14 14 -25 17 -25 26 0 137
108 152 147 5 13 9 45 9 71 0 66 -35 102 -102 102 -41 0 -54 -5 -90 -37 -24
-21 -45 -40 -48 -44 -3 -3 -22 -15 -43 -28 -36 -22 -39 -23 -57 -6 -37 33 -20
93 42 152 18 17 46 37 61 42 21 8 28 17 25 34 -5 37 -47 34 -101 -8z"/>
<path d="M2890 3584 c-13 -34 -13 -34 13 -34 62 0 137 -92 137 -168 0 -43 -29
-90 -48 -78 -7 4 -55 59 -107 122 -53 63 -102 114 -109 114 -24 0 -72 -64 -86
-115 -23 -81 13 -170 92 -226 43 -31 141 -38 191 -14 83 39 129 108 129 195 0
85 -53 170 -133 211 -51 25 -68 24 -79 -7z m22 -268 l50 -59 -28 -15 c-37 -19
-110 -9 -142 21 -55 51 -66 110 -31 167 l22 35 40 -45 c22 -25 62 -72 89 -104z"/>
<path d="M7612 3368 c-7 -7 -12 -19 -12 -27 0 -13 260 -271 282 -280 10 -4 48
28 48 41 0 15 -280 278 -297 278 -5 0 -14 -5 -21 -12z"/>
<path d="M7404 3331 c-92 -22 -198 -112 -223 -189 -24 -71 0 -125 116 -267 54
-66 115 -138 135 -160 l37 -40 22 22 c21 21 22 23 6 41 -21 23 -13 32 31 32
59 0 139 56 173 122 21 42 25 127 8 161 -18 34 -59 80 -88 99 -18 13 -46 18
-96 18 -60 0 -76 -4 -112 -28 -52 -34 -82 -72 -94 -118 -12 -40 -24 -40 -53 0
-15 19 -21 43 -21 76 0 44 4 54 40 90 39 40 91 69 148 84 23 5 28 11 25 33 -3
30 -11 34 -54 24z m183 -242 c36 -23 73 -84 73 -121 0 -32 -39 -97 -73 -122
-22 -16 -43 -21 -89 -21 -59 0 -61 1 -99 44 -33 36 -39 51 -39 87 0 61 44 125
100 147 34 13 94 6 127 -14z"/>
<path d="M3142 3255 c-26 -22 -32 -34 -32 -67 0 -45 10 -67 56 -123 39 -48 57
-91 49 -116 -9 -27 -51 -35 -91 -16 -34 17 -94 89 -94 114 0 17 -21 17 -45 -1
-17 -12 -18 -17 -7 -40 6 -15 33 -49 58 -76 60 -64 126 -87 186 -63 47 19 72
61 64 107 -3 17 -31 67 -62 110 -42 60 -54 84 -50 102 7 26 42 40 74 30 38
-12 111 -99 138 -164 3 -8 54 23 54 32 0 22 -66 110 -111 148 -38 32 -57 40
-101 45 -48 5 -57 3 -86 -22z"/>
<path d="M7981 3016 c-7 -8 -11 -27 -9 -43 2 -23 9 -29 33 -31 46 -6 71 40 39
72 -19 20 -48 20 -63 2z"/>
<path d="M3480 2996 c0 -20 7 -25 37 -31 99 -18 163 -82 163 -164 0 -27 -4
-52 -10 -56 -8 -5 -185 107 -261 165 l-27 20 -16 -25 c-24 -37 -37 -117 -27
-170 12 -64 46 -102 119 -135 160 -72 330 83 283 258 -23 82 -135 162 -228
162 -28 0 -33 -3 -33 -24z m-10 -186 c116 -77 155 -107 155 -120 0 -8 -19 -25
-43 -38 -37 -21 -46 -22 -77 -12 -78 26 -124 95 -111 166 8 41 18 42 76 4z"/>
<path d="M7078 2916 c-24 -17 -22 -33 7 -81 14 -22 30 -51 36 -65 6 -14 16
-32 23 -40 7 -8 20 -34 31 -57 18 -43 18 -43 -6 -87 -40 -77 -128 -108 -182
-66 -23 18 -97 133 -139 215 -17 32 -20 34 -43 23 -14 -6 -25 -20 -25 -30 0
-28 113 -218 153 -256 44 -42 99 -52 161 -28 46 18 126 94 126 121 0 20 9 19
28 -5 16 -19 18 -20 43 -3 l26 18 -102 175 c-56 96 -106 175 -111 177 -5 1
-17 -4 -26 -11z"/>
<path d="M3866 2806 c9 -23 31 -196 25 -201 -2 -3 -17 -5 -32 -5 -40 0 -70
-14 -103 -46 -32 -32 -66 -103 -66 -139 0 -39 36 -110 71 -140 48 -40 273
-147 278 -132 2 7 39 84 81 172 42 88 92 193 110 234 l34 73 -23 19 c-13 11
-27 19 -32 19 -4 0 -23 -31 -40 -70 -18 -39 -39 -70 -47 -70 -8 0 -45 14 -82
31 -76 36 -84 49 -95 162 -6 63 -9 70 -38 88 -38 23 -48 24 -41 5z m153 -312
c94 -43 91 -28 25 -169 -28 -59 -51 -95 -60 -95 -29 0 -159 71 -188 102 -26
29 -28 36 -23 88 3 41 11 64 28 82 45 48 98 46 218 -8z"/>
<path d="M6502 2631 c-65 -17 -144 -100 -121 -127 13 -16 47 -6 59 16 14 26
90 60 133 60 51 0 104 -24 112 -50 8 -26 3 -31 -55 -54 -25 -10 -58 -24 -75
-31 -31 -13 -127 -49 -157 -58 -26 -9 -10 -45 47 -104 l51 -53 78 0 c65 0 84
4 121 26 67 39 90 83 89 174 0 68 -3 80 -32 121 -17 26 -43 54 -57 63 -30 20
-143 29 -193 17z m218 -251 c-18 -68 -95 -111 -168 -95 -34 7 -90 61 -76 73
12 11 90 43 194 82 43 16 45 16 53 -3 4 -10 3 -36 -3 -57z"/>
<path d="M4596 2518 c-2 -7 -10 -35 -19 -63 -13 -45 -24 -86 -72 -270 -7 -27
-21 -78 -30 -111 -19 -66 -17 -79 15 -87 27 -7 44 20 65 103 9 36 23 90 31
120 7 30 20 82 28 115 7 33 21 86 31 118 9 33 13 63 9 67 -18 16 -54 22 -58 8z"/>
<path d="M6187 2523 c-12 -11 -8 -58 8 -104 9 -24 19 -78 22 -120 5 -68 3 -80
-16 -107 -12 -17 -37 -36 -57 -42 -32 -11 -35 -15 -29 -39 4 -14 8 -28 10 -29
11 -11 79 25 102 53 l27 33 17 -23 c13 -16 25 -21 44 -18 14 3 25 6 25 7 0 1
-5 17 -11 36 -10 33 -19 69 -52 205 -34 140 -40 155 -62 155 -12 0 -25 -3 -28
-7z"/>
<path d="M4730 2460 c0 -10 6 -34 14 -52 7 -18 21 -60 31 -93 9 -33 25 -85 35
-115 9 -30 25 -80 33 -110 52 -177 58 -190 88 -190 16 0 32 -1 36 -2 6 -3 37
45 158 242 25 41 73 118 106 170 l59 95 -31 9 c-36 11 -42 5 -92 -79 l-28 -47
-52 6 c-251 31 -249 31 -264 90 -16 65 -38 96 -68 96 -18 0 -25 -5 -25 -20z
m302 -213 c31 -7 60 -15 63 -19 4 -4 -1 -20 -11 -35 -11 -15 -24 -37 -31 -48
-67 -111 -95 -155 -102 -159 -5 -3 -21 34 -35 82 -14 48 -33 108 -41 133 -8
26 -15 49 -15 53 0 10 111 5 172 -7z"/>
<path d="M5694 2250 c-94 -10 -114 -17 -114 -41 0 -17 8 -19 74 -19 114 0 136
7 136 41 0 17 -5 28 -12 28 -7 -1 -45 -5 -84 -9z"/>
</g>
</svg>
