<?xml version="1.0" standalone="no"?>
<!DOCTYPE svg PUBLIC "-//W3C//DTD SVG 20010904//EN"
 "http://www.w3.org/TR/2001/REC-SVG-20010904/DTD/svg10.dtd">
<svg version="1.0" xmlns="http://www.w3.org/2000/svg"
 width="1080.000000pt" height="1080.000000pt" viewBox="0 0 1080.000000 1080.000000"
 preserveAspectRatio="xMidYMid meet">

<g transform="translate(0.000000,1080.000000) scale(0.100000,-0.100000)"
fill="#000000" stroke="none">
<path d="M4997 8636 c-27 -13 -61 -38 -77 -56 l-29 -33 -7 42 -7 42 -41 -3
-41 -3 3 -80 c2 -44 10 -112 17 -152 8 -40 15 -100 16 -135 0 -35 4 -85 10
-113 5 -27 14 -99 19 -160 6 -60 13 -112 18 -116 4 -3 24 -4 45 -2 37 5 37 5
36 52 0 57 -14 171 -22 191 -4 8 -3 22 3 30 8 12 14 11 42 -10 28 -21 46 -26
119 -28 75 -3 93 -1 140 21 63 29 88 54 125 122 55 104 26 267 -63 345 -83 73
-211 92 -306 46z m218 -92 c99 -75 113 -217 30 -312 -25 -29 -98 -62 -139 -62
-43 1 -105 31 -143 70 -61 63 -66 203 -10 272 59 71 189 88 262 32z"/>
<path d="M5650 8642 c-60 -21 -139 -102 -163 -168 -39 -111 -10 -233 73 -308
64 -58 100 -70 215 -70 98 -1 128 7 184 50 2 2 -4 15 -13 29 -19 28 -51 32
-80 10 -29 -22 -134 -19 -189 4 -24 10 -58 36 -75 56 -33 40 -51 103 -33 115
6 3 46 1 89 -6 42 -7 109 -13 147 -14 39 -1 97 -7 130 -14 36 -8 65 -10 71 -4
19 14 22 55 9 119 -22 107 -84 174 -187 203 -67 19 -118 19 -178 -2z m209 -99
c38 -31 83 -107 79 -133 -3 -12 -20 -14 -98 -11 -52 2 -117 7 -145 12 -27 5
-67 12 -87 15 -44 8 -46 14 -16 63 22 37 29 43 82 74 47 28 137 18 185 -20z"/>
<path d="M6227 8563 c-2 -5 -7 -21 -11 -38 -4 -16 -23 -82 -42 -145 -19 -63
-42 -140 -51 -170 -9 -30 -22 -72 -29 -93 -22 -59 -18 -75 21 -94 21 -10 38
-13 43 -7 8 9 28 70 73 221 39 136 82 175 190 177 70 1 73 2 82 29 16 48 5 57
-67 57 -49 0 -74 -5 -102 -22 l-36 -21 7 41 c7 41 6 43 -29 57 -41 17 -43 18
-49 8z"/>
<path d="M4372 8501 c-23 -4 -48 -13 -54 -19 -7 -7 -19 -12 -27 -12 -9 0 -37
-18 -63 -40 -126 -109 -131 -295 -11 -412 68 -65 105 -82 188 -82 263 -3 400
283 228 474 -25 28 -62 59 -82 69 -43 22 -120 31 -179 22z m121 -95 c65 -28
128 -127 127 -201 -1 -45 -40 -115 -83 -149 -36 -29 -45 -31 -117 -31 -79 0
-79 0 -120 40 -76 74 -98 160 -61 241 41 91 163 139 254 100z"/>
<path d="M3733 8468 c-29 -14 -28 -22 7 -83 16 -27 41 -75 57 -105 15 -30 54
-102 86 -160 33 -58 78 -141 102 -185 84 -154 90 -165 105 -165 18 1 60 34 60
49 0 11 -17 43 -128 246 -89 161 -118 215 -177 323 -52 96 -63 104 -112 80z"/>
<path d="M6776 8075 c-9 -13 -16 -26 -16 -29 0 -6 175 -110 215 -128 31 -14
45 -1 45 42 0 21 -15 34 -101 83 -56 31 -107 57 -114 57 -7 0 -20 -11 -29 -25z"/>
<path d="M3485 8037 c-124 -67 -190 -201 -154 -316 29 -94 86 -163 164 -201
130 -63 319 10 391 152 29 58 30 84 3 98 -30 17 -47 6 -68 -42 -18 -42 -60
-88 -111 -121 -39 -27 -155 -23 -197 6 -18 12 -32 25 -30 29 3 8 327 258 345
265 6 3 12 9 12 14 0 18 -66 82 -114 110 -44 25 -61 29 -126 28 -57 0 -85 -6
-115 -22z m176 -68 c32 -11 59 -34 59 -50 0 -7 -162 -136 -241 -193 -39 -27
-41 -27 -54 -10 -9 12 -14 43 -14 79 0 49 5 67 27 99 49 72 140 102 223 75z"/>
<path d="M7639 7927 c-36 -34 -115 -108 -175 -163 -66 -61 -122 -124 -143
-158 -31 -53 -34 -63 -34 -141 0 -94 17 -133 91 -211 70 -74 113 -96 197 -102
129 -8 174 19 415 251 l143 137 -23 25 c-13 14 -32 25 -43 25 -11 0 -66 -44
-126 -102 -168 -161 -250 -227 -295 -239 -58 -16 -124 -4 -165 29 -86 69 -111
129 -97 226 8 50 32 78 264 299 61 59 112 113 112 120 -1 11 -44 67 -52 67 -2
0 -33 -29 -69 -63z"/>
<path d="M3122 7737 c-30 -32 -28 -56 17 -150 21 -45 64 -135 95 -200 32 -65
56 -122 54 -127 -2 -4 -21 -2 -43 5 -22 7 -101 32 -175 55 -74 23 -152 48
-173 56 -53 20 -70 18 -101 -15 l-28 -29 23 -16 c13 -9 29 -16 36 -16 7 0 39
-9 70 -19 143 -47 291 -91 305 -91 8 0 28 -6 44 -14 16 -8 45 -17 64 -21 31
-5 39 -2 68 28 l33 34 -34 69 c-33 65 -54 109 -178 372 -27 56 -51 102 -52
102 -2 0 -13 -10 -25 -23z"/>
<path d="M8220 7240 c-30 -22 -62 -43 -70 -47 -8 -3 -91 -54 -183 -112 -92
-58 -194 -122 -227 -141 -32 -20 -62 -39 -66 -42 -10 -10 35 -78 52 -78 8 0
27 8 42 19 47 32 116 77 132 84 8 4 42 25 75 46 33 22 84 55 114 73 30 18 64
40 77 48 12 8 46 30 75 47 30 18 65 41 78 52 l24 18 -22 37 c-13 20 -28 36
-34 36 -7 0 -37 -18 -67 -40z"/>
<path d="M2702 7129 c-54 -25 -100 -71 -136 -139 -58 -108 -31 -241 66 -325
63 -53 119 -75 194 -75 112 0 205 63 261 178 22 45 28 71 28 124 0 75 -11 94
-49 84 -24 -6 -26 -11 -26 -62 0 -131 -91 -234 -207 -234 -78 0 -82 9 -40 80
20 34 37 63 37 64 0 2 32 59 70 127 39 68 70 131 70 141 0 11 -10 20 -27 24
-15 4 -38 13 -52 20 -38 20 -138 16 -189 -7z m164 -84 c4 -8 2 -21 -4 -28 -5
-6 -30 -50 -54 -97 -24 -47 -59 -109 -78 -138 l-33 -54 -35 35 c-30 30 -36 44
-40 90 -5 68 10 118 51 158 40 40 60 48 130 48 43 1 59 -3 63 -14z"/>
<path d="M8628 6834 c-4 -3 -73 -12 -155 -20 -159 -15 -288 -29 -423 -45 -47
-6 -129 -14 -182 -19 -130 -11 -197 -20 -202 -29 -2 -3 2 -21 10 -39 l14 -33
57 6 c32 3 78 10 103 15 25 5 90 12 145 15 55 4 134 13 175 21 41 8 104 14
140 15 36 0 88 4 115 10 28 5 108 14 180 20 71 6 131 12 133 14 2 1 -5 19 -14
39 -16 32 -22 36 -54 36 -20 0 -39 -3 -42 -6z"/>
<path d="M2296 6554 c-61 -32 -124 -97 -160 -165 -27 -51 -38 -84 -72 -219 -7
-30 -21 -81 -30 -114 -10 -37 -12 -62 -6 -68 9 -9 22 -13 122 -38 50 -12 123
-32 203 -55 28 -8 95 -26 147 -39 52 -14 121 -32 154 -40 32 -9 62 -13 67 -10
17 10 109 362 109 415 0 56 -38 169 -74 217 -77 105 -158 142 -309 142 -89 -1
-108 -4 -151 -26z m288 -94 c97 -49 149 -132 150 -239 1 -100 -51 -302 -78
-301 -13 1 -86 19 -348 89 -65 17 -128 31 -141 31 -42 0 -46 16 -25 98 34 134
49 176 85 229 35 52 97 102 143 115 46 13 172 0 214 -22z"/>
<path d="M8550 6534 c-42 -13 -112 -31 -217 -54 -169 -37 -261 -94 -306 -189
-42 -89 -20 -250 46 -336 93 -119 187 -139 395 -84 64 17 137 35 162 39 25 5
56 13 70 18 14 6 42 13 62 17 45 7 52 16 44 61 -6 29 -11 34 -35 34 -16 0 -51
-7 -77 -15 -256 -76 -432 -101 -491 -70 -69 38 -124 159 -108 243 18 97 87
146 265 188 30 7 82 19 115 28 135 34 151 38 175 45 28 7 37 39 20 70 -13 25
-53 27 -120 5z"/>
<path d="M8110 5677 l0 -53 122 -90 c67 -49 131 -93 142 -99 46 -21 46 -38 -1
-69 -21 -14 -69 -47 -108 -75 -38 -28 -91 -65 -117 -82 -47 -32 -48 -33 -48
-86 0 -29 3 -53 8 -53 4 0 18 10 32 21 14 11 48 35 75 54 28 18 100 70 160
114 l110 79 35 -20 c19 -12 46 -31 60 -44 48 -43 248 -182 254 -177 3 4 6 25
6 48 0 39 -3 44 -56 81 -30 21 -72 53 -93 69 -21 17 -60 45 -87 64 l-48 33 26
22 c14 11 49 37 78 56 28 19 80 57 116 83 64 47 64 48 64 97 0 28 -2 50 -4 50
-3 0 -31 -18 -63 -40 -32 -22 -80 -56 -108 -74 -27 -19 -68 -48 -90 -66 -22
-18 -52 -38 -67 -46 -29 -15 -19 -21 -290 183 -53 40 -99 73 -102 73 -3 0 -6
-24 -6 -53z"/>
<path d="M2457 5437 c-33 -6 -57 -20 -83 -46 -34 -34 -74 -123 -74 -164 0 -22
0 -23 -159 86 -95 65 -143 82 -154 55 -5 -15 11 -342 21 -413 7 -49 8 -50 45
-53 l37 -3 -1 83 c0 46 -4 115 -10 153 -11 83 -12 105 -4 113 3 3 56 -29 118
-71 97 -66 119 -77 155 -77 l42 0 0 85 c0 80 2 86 30 119 37 42 91 54 141 33
50 -21 67 -45 84 -119 13 -59 13 -74 1 -136 -8 -38 -23 -83 -33 -101 -16 -27
-16 -33 -3 -41 8 -5 29 -10 47 -10 29 0 34 5 54 48 18 40 21 66 22 167 0 133
-13 175 -77 243 -42 45 -122 65 -199 49z"/>
<path d="M2440 4839 c-67 -30 -135 -108 -150 -170 -14 -57 -8 -142 14 -194 17
-40 81 -112 107 -120 10 -4 19 -10 19 -13 0 -4 -42 -20 -92 -35 -118 -36 -177
-57 -182 -65 -7 -15 7 -82 18 -82 6 0 45 12 86 26 41 14 94 29 117 34 23 5 50
14 60 19 10 5 36 14 58 20 102 26 161 44 170 51 6 4 28 11 50 15 22 4 45 10
50 15 6 4 28 11 50 15 45 8 95 31 95 45 0 5 -5 21 -10 36 -10 24 -14 26 -51
21 -35 -5 -40 -3 -33 11 33 77 37 105 25 169 -17 93 -59 152 -141 202 -49 30
-195 30 -260 0z m230 -87 c19 -11 50 -41 68 -68 30 -45 33 -54 30 -111 -3 -51
-9 -69 -34 -100 -57 -70 -146 -103 -228 -84 -71 17 -146 113 -146 186 0 69 70
166 133 184 56 16 139 13 177 -7z"/>
<path d="M8021 4703 c-13 -32 -29 -71 -36 -88 -7 -16 -30 -79 -50 -140 -33
-98 -37 -118 -32 -182 10 -133 84 -245 195 -295 26 -11 58 -26 71 -32 13 -6
63 -11 110 -11 74 1 94 5 143 29 32 15 79 51 108 82 48 50 110 160 110 195 0
8 4 19 8 25 5 5 21 45 37 89 15 44 34 92 42 108 12 25 12 28 -4 33 -10 4 -58
22 -108 41 -49 18 -133 50 -185 69 -108 41 -130 49 -257 98 -51 20 -101 36
-111 36 -13 0 -25 -17 -41 -57z m214 -108 c50 -19 119 -45 155 -59 224 -84
229 -87 223 -104 -6 -18 -41 -114 -53 -147 -42 -107 -98 -176 -175 -215 -56
-29 -147 -27 -217 4 -70 31 -110 65 -144 124 -24 41 -28 58 -28 127 0 68 5 95
39 185 21 58 43 111 49 118 12 17 35 11 151 -33z"/>
<path d="M2880 4225 c-16 -41 -12 -55 18 -66 63 -24 142 -138 142 -205 -1 -51
-53 -144 -81 -144 -12 0 -40 45 -135 218 -74 134 -98 163 -123 155 -31 -11
-104 -88 -124 -133 -50 -110 -11 -256 88 -332 45 -34 63 -41 143 -55 37 -6
108 11 163 38 56 28 126 113 139 171 32 131 -44 298 -159 350 -25 12 -49 23
-54 25 -4 2 -12 -8 -17 -22z m-94 -261 c96 -167 109 -195 92 -205 -7 -5 -36
-9 -64 -9 -123 0 -222 146 -169 251 19 36 54 79 66 79 4 0 37 -52 75 -116z"/>
<path d="M7753 3981 c-118 -40 -212 -170 -213 -294 l0 -48 38 3 37 3 7 58 c8
63 47 131 96 165 58 41 142 54 177 28 16 -11 17 -18 8 -37 -10 -22 -130 -197
-203 -295 -16 -23 -30 -47 -30 -55 0 -8 24 -27 53 -42 45 -22 67 -27 131 -27
127 0 207 56 255 179 61 153 -32 322 -204 367 -64 17 -88 17 -152 -5z m265
-181 c26 -39 31 -134 8 -178 -46 -89 -174 -140 -234 -94 l-23 18 103 147 c57
81 108 145 113 144 6 -2 20 -18 33 -37z"/>
<path d="M3285 3621 c-27 -16 -86 -47 -129 -70 -109 -57 -225 -121 -261 -142
-16 -10 -43 -25 -60 -34 -16 -8 -37 -19 -45 -24 -8 -6 -36 -22 -62 -36 -42
-23 -46 -29 -36 -45 7 -10 22 -23 35 -29 22 -10 62 5 153 59 19 12 311 170
380 207 50 26 51 16 11 -70 -16 -34 -38 -82 -49 -107 -12 -25 -41 -89 -66
-143 -25 -55 -46 -101 -46 -103 0 -3 -14 -34 -30 -70 -28 -58 -29 -67 -16 -85
34 -49 49 -51 112 -18 99 52 246 131 299 159 127 69 196 103 200 98 3 -3 -6
-27 -19 -55 -14 -27 -41 -85 -60 -130 -19 -44 -46 -105 -59 -134 -122 -261
-120 -253 -76 -291 l34 -30 25 54 c39 82 89 193 137 303 25 55 59 132 78 170
18 39 43 94 55 123 l23 53 -38 39 -37 38 -47 -25 c-25 -13 -77 -41 -116 -63
-38 -21 -97 -52 -130 -69 -33 -17 -103 -53 -155 -81 -52 -28 -96 -47 -98 -41
-3 10 70 182 173 406 12 28 33 74 46 104 l23 54 -34 29 c-42 35 -52 35 -115
-1z"/>
<path d="M7436 3591 c-3 -5 -18 -12 -32 -15 -40 -10 -130 -83 -171 -138 -63
-87 -64 -190 -2 -242 57 -48 137 -32 264 54 22 15 56 33 77 40 32 12 40 11 62
-4 21 -13 26 -24 26 -60 0 -41 -4 -48 -58 -98 -36 -32 -75 -59 -100 -66 -44
-13 -49 -23 -32 -66 14 -37 37 -33 123 23 102 67 157 149 157 235 0 36 -6 51
-37 85 -30 34 -47 44 -80 48 -51 7 -85 -6 -173 -62 -113 -73 -143 -81 -172
-47 -25 28 -26 45 -7 83 34 68 124 138 197 154 26 5 32 11 27 26 -3 10 -8 28
-11 39 -6 21 -48 29 -58 11z"/>
<path d="M6645 3253 c-212 -64 -308 -177 -275 -322 11 -50 208 -468 243 -515
13 -17 15 -18 46 -1 33 17 35 27 16 77 -4 10 12 12 79 10 74 -3 90 0 134 22
115 58 162 130 162 246 0 88 -28 149 -96 209 -56 49 -108 65 -189 58 -96 -7
-203 -76 -240 -153 -17 -36 -18 -37 -32 -18 -28 38 -44 115 -32 154 28 87 127
148 259 158 l85 7 3 34 c2 20 -2 37 -10 42 -20 13 -98 9 -153 -8z m210 -317
c40 -17 92 -85 101 -132 11 -62 -4 -119 -42 -158 -100 -103 -240 -100 -315 6
-20 27 -24 45 -24 104 0 58 4 77 24 106 22 31 75 68 121 82 32 10 102 5 135
-8z"/>
<path d="M6993 3244 l-31 -25 43 -62 c24 -34 75 -105 113 -157 76 -102 135
-183 156 -215 13 -19 15 -18 50 8 20 16 36 31 36 35 0 4 -17 29 -37 55 -21 26
-60 77 -86 114 -121 171 -198 273 -205 273 -4 -1 -21 -12 -39 -26z"/>
<path d="M6220 2846 c-42 -15 -47 -36 -27 -109 71 -252 63 -332 -40 -388 -53
-29 -137 -32 -177 -6 -42 28 -70 109 -116 337 -16 80 -19 84 -70 70 -37 -10
-41 -14 -35 -33 4 -12 11 -44 16 -72 11 -67 36 -165 61 -247 16 -53 29 -76 63
-107 41 -38 95 -61 141 -61 34 0 142 38 174 60 16 12 37 34 47 51 l18 30 11
-33 c11 -35 30 -44 70 -34 16 4 24 14 24 27 0 22 -33 175 -54 254 -14 51 -28
114 -48 218 -6 31 -14 57 -17 56 -3 0 -22 -6 -41 -13z"/>
<path d="M4092 2740 c-11 -29 -10 -30 44 -55 30 -14 56 -25 59 -25 2 0 34 -14
71 -31 74 -34 87 -30 82 26 -3 31 6 25 -186 105 -41 17 -59 12 -70 -20z"/>
<path d="M4957 2748 c-9 -13 -18 -50 -22 -83 -9 -86 -44 -223 -65 -258 -27
-43 -92 -77 -151 -77 -44 0 -49 -3 -55 -25 -3 -14 -3 -32 0 -40 9 -24 120 -10
169 22 l38 24 -3 -43 c-3 -42 -2 -43 34 -52 21 -5 40 -7 44 -4 3 4 9 30 14 60
4 29 18 103 30 163 11 61 27 151 35 201 8 50 17 99 21 108 5 12 0 16 -19 16
-14 0 -32 3 -40 6 -10 3 -21 -4 -30 -18z"/>
<path d="M5239 2705 c-70 -36 -78 -51 -46 -83 23 -23 30 -25 45 -14 30 22 86
44 123 49 45 6 129 -20 168 -53 28 -24 67 -101 56 -112 -3 -3 -105 -6 -228 -6
l-222 -1 2 -62 c5 -185 193 -301 376 -233 47 18 95 57 135 111 6 8 18 46 26
82 11 55 11 79 1 131 -6 36 -18 73 -25 83 -38 50 -80 87 -122 109 -41 21 -61
24 -145 24 -83 -1 -105 -5 -144 -25z m345 -294 c9 -15 -15 -74 -43 -105 -71
-78 -206 -76 -274 5 -31 36 -52 91 -39 104 9 9 351 5 356 -4z"/>
<path d="M7392 2694 c-55 -38 2 -120 67 -98 21 8 27 17 29 49 5 60 -44 85 -96
49z"/>
</g>
</svg>
